<svg xmlns="http://www.w3.org/2000/svg" xmlns:xlink="http://www.w3.org/1999/xlink" width="200" height="200" viewBox="0 0 200 200"><defs><linearGradient id="green" x1="57.2" y1="178.02" x2="142.39" y2="26.72" gradientTransform="matrix(1, 0, 0, -1, 0, 202)" gradientUnits="userSpaceOnUse"><stop offset="0" stop-color="#8bc34a"/><stop offset="1" stop-color="#558b2f"/></linearGradient></defs><path d="M100,197.2a20,20,0,0,1-9.8-2.6L23,155.8a19.78,19.78,0,0,1-9.8-17V61.2a19.78,19.78,0,0,1,9.8-17L90.2,5.4a19.77,19.77,0,0,1,19.6,0L177,44.2a19.78,19.78,0,0,1,9.8,17v77.6a19.78,19.78,0,0,1-9.8,17l-67.2,38.8A20,20,0,0,1,100,197.2Z" style="fill:url(#green)"/><path d="M100,5.6a16.85,16.85,0,0,1,8.4,2.3l67.2,38.8A16.84,16.84,0,0,1,184,61.2v77.6a16.6,16.6,0,0,1-8.4,14.5l-67.2,38.8a16.49,16.49,0,0,1-16.8,0L24.4,153.3A16.84,16.84,0,0,1,16,138.8V61.2a16.6,16.6,0,0,1,8.4-14.5L91.6,7.9A16.85,16.85,0,0,1,100,5.6M100,0A22.4,22.4,0,0,0,88.8,3L21.6,41.8A22.47,22.47,0,0,0,10.4,61.2v77.6a22.47,22.47,0,0,0,11.2,19.4L88.8,197a22.41,22.41,0,0,0,22.4,0l67.2-38.8a22.47,22.47,0,0,0,11.2-19.4V61.2a22.47,22.47,0,0,0-11.2-19.4L111.2,3A22.4,22.4,0,0,0,100,0Z" style="fill:#a9d17b"/><title>cartes</title><rect style="fill:#fff"/><path d="M123.92,126.47a1.77,1.77,0,0,1-1.22,2.19L77,141.56a1.77,1.77,0,0,1-2.19-1.22L55,70.28a1.76,1.76,0,0,1,1.22-2.18L102,55.19a1.78,1.78,0,0,1,2.18,1.23Z" style="fill:#fff;stroke:#000;stroke-miterlimit:10;stroke-width:0.289591162314687px;fill-rule:evenodd"/><path d="M112.9,120.61c.69-.2,1.2.19,1.54,1.15l1.4-.39c0-.28.06-.54.08-.78l0-.67,1.14-.32-1,6.06-1.74.49-1.45-3.84c-.21-.55-.45-.88-.71-1A.92.92,0,0,1,112.9,120.61Zm2.85,1.42-1.11.31.68,2.06.06.22.22-1.44Z"/><path d="M90.19,105.36a8.13,8.13,0,0,1-4.54,2.42,5,5,0,0,1-6-5.2,11.37,11.37,0,0,1,1.7-5.6,45.84,45.84,0,0,0,4.3-9.75c0-.11.1-.22.18-.41.61.54,1.16,1.05,1.73,1.54a32.88,32.88,0,0,0,6.86,4.5,11.23,11.23,0,0,1,4,3.19c1.36,1.78,2,3.74,1,5.88a5.63,5.63,0,0,1-5.16,3.16,20.75,20.75,0,0,1-2.3-.12,9.59,9.59,0,0,0,4.15,4.61l-6.78,1.92A14.44,14.44,0,0,0,90.19,105.36Z" style="fill-rule:evenodd"/><path d="M65.11,82a1.74,1.74,0,0,1-1,.51,1,1,0,0,1-1.25-1.1,2.32,2.32,0,0,1,.35-1.17,10.16,10.16,0,0,0,.91-2,.92.92,0,0,1,0-.09l.37.33a6.49,6.49,0,0,0,1.44.94,2.34,2.34,0,0,1,.83.67A1.14,1.14,0,0,1,67,81.24,1.19,1.19,0,0,1,66,81.9a4,4,0,0,1-.48,0,2.09,2.09,0,0,0,.87,1l-1.42.4A3.12,3.12,0,0,0,65.11,82Z" style="fill-rule:evenodd"/><path d="M126.75,134.41a1.75,1.75,0,0,1-1.54,2L78,142.11a1.78,1.78,0,0,1-2-1.55L67.28,68.3a1.78,1.78,0,0,1,1.55-2L116,60.6a1.77,1.77,0,0,1,2,1.54Z" style="fill:#fff;stroke:#000;stroke-miterlimit:10;stroke-width:0.289591162314687px;fill-rule:evenodd"/><path d="M96.17,94a25.14,25.14,0,0,1,1.74-2.81,6,6,0,0,1,6.92-1.59,5.21,5.21,0,0,1,3,6,14.6,14.6,0,0,1-2.16,5.22c-1.36,2.2-2.78,4.36-4.11,6.58A20.61,20.61,0,0,0,99,113.77c0,.18-.1.35-.15.52a1.5,1.5,0,0,1-.15.12,1.74,1.74,0,0,1-.18-.22c-1.48-3.45-4.06-6-6.69-8.61-1.6-1.56-3.2-3.11-4.73-4.72a7.7,7.7,0,0,1-2.06-3.73,5.38,5.38,0,0,1,5.44-6.56,6.16,6.16,0,0,1,5.16,2.71l.55.73S96.26,94,96.17,94Z" style="fill:#e63d21;fill-rule:evenodd"/><path d="M116.16,127c.71-.09,1.16.37,1.35,1.37l1.44-.17c.08-.27.14-.52.19-.75l.14-.66,1.17-.15-2,5.84-1.79.21-.85-4a1.64,1.64,0,0,0-.55-1.09A.93.93,0,0,1,116.16,127Zm2.6,1.84-1.15.14.36,2.14,0,.22.43-1.38Z" style="fill:#e63d21"/><path d="M75.08,78.51a6.49,6.49,0,0,1,.39-.62A1.31,1.31,0,0,1,77,77.54a1.14,1.14,0,0,1,.66,1.33A3.26,3.26,0,0,1,77.18,80c-.3.48-.62,1-.91,1.45a4.37,4.37,0,0,0-.56,1.4l0,.11s0,0,0,0,0,0,0,0a6.1,6.1,0,0,0-1.48-1.9c-.35-.35-.71-.69-1-1a1.78,1.78,0,0,1-.45-.83,1.19,1.19,0,0,1,1.2-1.45,1.39,1.39,0,0,1,1.14.6l.12.16Z" style="fill:#e63d21;fill-rule:evenodd"/><path d="M128.27,142.69a1.76,1.76,0,0,1-1.88,1.64L79,141.16a1.77,1.77,0,0,1-1.65-1.89l4.86-72.63A1.78,1.78,0,0,1,84.08,65l47.41,3.18a1.77,1.77,0,0,1,1.65,1.88Z" style="fill:#fff;stroke:#000;stroke-miterlimit:10;stroke-width:0.289591162314687px;fill-rule:evenodd"/><path d="M119.85,133.49c.72,0,1.07.58,1.07,1.6l1.45.1c.13-.25.24-.48.33-.7l.26-.62,1.18.07-3,5.37-1.8-.12-.08-4.11a1.67,1.67,0,0,0-.34-1.17A.93.93,0,0,1,119.85,133.49Zm2.22,2.3-1.16-.08,0,2.16v.23l.68-1.28Z"/><path d="M102.3,101.15a7.65,7.65,0,0,1-2-5.68,4.39,4.39,0,0,1,4.29-4.39,7.87,7.87,0,0,1,2.37.15c2.9.64,4.2,3,3.36,6.16a8,8,0,0,1-2,3.52c-.14.14-.26.29-.32.36a21.47,21.47,0,0,1,3.3.25,4.84,4.84,0,0,1,4,5,4.53,4.53,0,0,1-5.93,4.18,6.91,6.91,0,0,1-3.6-2.33A12.24,12.24,0,0,0,109,116l-9.51-.63c2.12-1.92,3-4.36,3.6-7.13-.29.23-.45.36-.62.48a6,6,0,0,1-4.67,1.32,4.22,4.22,0,0,1-3.57-3.73,4.37,4.37,0,0,1,2-4.83,6.71,6.71,0,0,1,5.13-.62l.37.1Z" style="fill-rule:evenodd"/><path d="M87.55,79.73A2.05,2.05,0,0,1,87,78.18,1.2,1.2,0,0,1,88.19,77a2.3,2.3,0,0,1,.64,0,1.24,1.24,0,0,1,.92,1.69,2.17,2.17,0,0,1-.53,1l-.09.1a6.69,6.69,0,0,1,.9.06,1.33,1.33,0,0,1,1.1,1.37,1.24,1.24,0,0,1-1.62,1.14,1.93,1.93,0,0,1-1-.64,3.33,3.33,0,0,0,.85,2.1l-2.59-.17a3.47,3.47,0,0,0,1-1.95l-.17.13a1.65,1.65,0,0,1-1.28.36,1.16,1.16,0,0,1-1-1,1.19,1.19,0,0,1,.56-1.32,1.85,1.85,0,0,1,1.4-.17l.1,0Z" style="fill-rule:evenodd"/><path d="M120.34,157.71a1.77,1.77,0,0,1-2.26,1.07L73.36,142.71a1.77,1.77,0,0,1-1.07-2.26L96.9,71.94a1.77,1.77,0,0,1,2.26-1.07l44.73,16.07A1.76,1.76,0,0,1,145,89.2Z" style="fill:#fff;stroke:#000;stroke-miterlimit:10;stroke-width:0.289591162314687px;fill-rule:evenodd"/><path d="M104.24,125.49c-.26-1.3-.45-2.54-.77-3.74-.89-3.34-1.83-6.67-2.77-10-.11-.4-.18-.66.25-1,3.81-2.73,7.59-5.49,11.38-8.24a1.84,1.84,0,0,1,.19-.09c.06.16.12.31.17.47q1.69,6.61,3.41,13.23c.09.35.24.63-.21.9a81.56,81.56,0,0,0-11.42,8.3Z" style="fill:#e63d21;fill-rule:evenodd"/><path d="M97.35,89.11c-.07-.33-.12-.64-.2-1-.23-.85-.47-1.7-.71-2.54,0-.11,0-.17.07-.25,1-.69,1.93-1.4,2.89-2.1l0,0a.56.56,0,0,1,0,.12l.87,3.37c0,.09.06.16,0,.22a20.81,20.81,0,0,0-2.91,2.12Z" style="fill:#e63d21;fill-rule:evenodd"/><path d="M116,146.88c-.07-.33-.12-.65-.2-.95-.23-.85-.47-1.7-.71-2.54,0-.11,0-.17.07-.25l2.89-2.1,0,0,.05.12c.28,1.12.57,2.24.86,3.37,0,.09.07.16-.05.22a20.81,20.81,0,0,0-2.91,2.12Z" style="fill:#e63d21;fill-rule:evenodd"/><path d="M61.44,76.61l.73-.31.13,0,.73-.07.1.39L61.54,77Zm.9-5,.76-.2,3,4.41-1.26.34-2.32-3.62.18-.45-.25,4.71-.44.11Zm0,3.23,2-.53.29.39-2.28.61ZM64,76l.81-.34.49-.13,1-.14.11.38-2.27.61Z"/><path d="M72.22,74.82l.77-.2.13,0,.73,0,.05.4-1.63.19ZM73.86,70l.78-.08,2.27,4.79-1.3.15-1.75-3.92.24-.42-.94,4.62-.45.05Zm-.47,3.2,2-.23.22.42-2.35.27Zm1.45,1.35.84-.21.51-.06h1l0,.39-2.34.26Z" style="fill:#e63d21"/><path d="M86.25,74.84l.79-.06h.14l.71.16,0,.41-1.64-.11Zm2.46-4.46.79.05,1.39,5.12-1.31-.08-1-4.17.31-.37-1.74,4.38-.45,0Zm-1,3.06,2.06.13.14.46-2.35-.15ZM88.87,75l.87-.06.51,0,1,.18,0,.39-2.34-.15Z"/><path d="M97.87,80.78l.78.17.12,0,.65.36-.14.38-1.55-.56Zm3.62-3.59.74.27-.11,5.31-1.22-.45.17-4.29.4-.27-2.9,3.72-.42-.16Zm-1.84,2.65,1.93.71V81l-2.21-.81Zm.69,1.86.85.19.48.17.88.44-.14.37-2.21-.8Z" style="fill:#e63d21"/><path d="M115.22,148.44l-.85-.19-.48-.17-.88-.44.14-.37,2.21.8ZM114.07,153l-.74-.27.11-5.31,1.22.45-.17,4.3-.4.26,2.9-3.71.42.15Zm1.84-2.65-1.93-.71v-.47l2.21.8Zm1.78-.94-.78-.16-.12,0-.65-.36.14-.38,1.55.56Z" style="fill:#e63d21"/><g style="opacity:0.079999998211861"><path d="M111.2,3A22.41,22.41,0,0,0,88.8,3L21.6,41.8A22.47,22.47,0,0,0,10.4,61.2v77.6a22.47,22.47,0,0,0,11.2,19.4l61.6,35.6,36.2-186Z" style="fill:#fff"/></g><path d="M128.6,28.8l2.4,4.9a1.18,1.18,0,0,0,1,.7l5.4.8a1.34,1.34,0,0,1,1.11,1.54,1.33,1.33,0,0,1-.41.76l-3.9,3.8a1.37,1.37,0,0,0-.4,1.2l.9,5.4a1.32,1.32,0,0,1-1.08,1.52,1.29,1.29,0,0,1-.82-.12L128,46.8a1.28,1.28,0,0,0-1.2,0L122,49.3a1.3,1.3,0,0,1-1.77-.51,1.37,1.37,0,0,1-.13-.89l.9-5.4a1.37,1.37,0,0,0-.4-1.2l-3.9-3.8a1.34,1.34,0,0,1,.7-2.3l5.4-.8a1.42,1.42,0,0,0,1-.7l2.4-4.9a1.33,1.33,0,0,1,2.4,0Z" style="fill:#fff"/><path d="M101.2,16.3l2.4,4.9a1.18,1.18,0,0,0,1,.7l5.4.8a1.34,1.34,0,0,1,1.11,1.54,1.33,1.33,0,0,1-.41.76l-3.9,3.8a1.37,1.37,0,0,0-.4,1.2l.9,5.4a1.32,1.32,0,0,1-1.08,1.52,1.29,1.29,0,0,1-.82-.12l-4.8-2.5a1.28,1.28,0,0,0-1.2,0l-4.8,2.5a1.3,1.3,0,0,1-1.77-.51,1.37,1.37,0,0,1-.13-.89l.9-5.4a1.37,1.37,0,0,0-.4-1.2l-4-3.8a1.34,1.34,0,0,1,.7-2.3l5.4-.8a1.42,1.42,0,0,0,1-.7l2.4-4.9a1.42,1.42,0,0,1,1.92-.58A1.47,1.47,0,0,1,101.2,16.3Z" style="fill:#fff"/><path d="M73.8,28.8l2.4,4.9a1.18,1.18,0,0,0,1,.7l5.4.8a1.34,1.34,0,0,1,1.11,1.54,1.33,1.33,0,0,1-.41.76l-3.9,3.8a1.37,1.37,0,0,0-.4,1.2l.9,5.4a1.32,1.32,0,0,1-1.08,1.52A1.29,1.29,0,0,1,78,49.3l-4.8-2.5a1.28,1.28,0,0,0-1.2,0l-4.8,2.5a1.3,1.3,0,0,1-1.77-.51,1.37,1.37,0,0,1-.13-.89l.9-5.4a1.37,1.37,0,0,0-.4-1.2l-3.9-3.8a1.34,1.34,0,0,1,.7-2.3l5.4-.8a1.42,1.42,0,0,0,1-.7l2.4-4.9a1.33,1.33,0,0,1,2.4,0Z" style="fill:#fff;isolation:isolate"/></svg>