<svg xmlns="http://www.w3.org/2000/svg" xmlns:xlink="http://www.w3.org/1999/xlink" width="200" height="200" viewBox="0 0 200 200"><defs><linearGradient id="green" x1="57.2" y1="178.02" x2="142.39" y2="26.72" gradientTransform="matrix(1, 0, 0, -1, 0, 202)" gradientUnits="userSpaceOnUse"><stop offset="0" stop-color="#8bc34a"/><stop offset="1" stop-color="#558b2f"/></linearGradient></defs><path d="M100,197.2a20,20,0,0,1-9.8-2.6L23,155.8a19.78,19.78,0,0,1-9.8-17V61.2a19.78,19.78,0,0,1,9.8-17L90.2,5.4a19.77,19.77,0,0,1,19.6,0L177,44.2a19.78,19.78,0,0,1,9.8,17v77.6a19.78,19.78,0,0,1-9.8,17l-67.2,38.8A20,20,0,0,1,100,197.2Z" style="fill:url(#green)"/><path d="M100,5.6a16.85,16.85,0,0,1,8.4,2.3l67.2,38.8A16.84,16.84,0,0,1,184,61.2v77.6a16.6,16.6,0,0,1-8.4,14.5l-67.2,38.8a16.49,16.49,0,0,1-16.8,0L24.4,153.3A16.84,16.84,0,0,1,16,138.8V61.2a16.6,16.6,0,0,1,8.4-14.5L91.6,7.9A16.85,16.85,0,0,1,100,5.6M100,0A22.4,22.4,0,0,0,88.8,3L21.6,41.8A22.47,22.47,0,0,0,10.4,61.2v77.6a22.47,22.47,0,0,0,11.2,19.4L88.8,197a22.41,22.41,0,0,0,22.4,0l67.2-38.8a22.47,22.47,0,0,0,11.2-19.4V61.2a22.47,22.47,0,0,0-11.2-19.4L111.2,3A22.4,22.4,0,0,0,100,0Z" style="fill:#a9d17b"/><path d="M99.85,154.83a.88.88,0,0,0,.15-.05.88.88,0,0,1-.15-.05Z" style="fill:#182e4f"/><path d="M100.15,154.76c23.4-6,34.56-24.17,39.67-42.83H100.15Z" style="fill:#fff"/><path d="M137.63,77.66A87.4,87.4,0,0,1,141.76,62l-9.93-2.19c-5.6,4.94-17.75,8.38-31.83,8.41h.15v43.67h39.67C136.13,105.82,135.09,92.43,137.63,77.66Z" style="fill:#e20613"/><path d="M100.15,154.83v-.07a.88.88,0,0,0-.15.05Z" style="fill:#334b72"/><path d="M99.85,68.26H100c-14.08,0-26.23-3.46-31.83-8.4l-9.93,2.19a87.28,87.28,0,0,1,4.13,15.63c2.54,14.75,1.5,28.17-2.19,34.25H99.85Z" style="fill:#fff"/><path d="M60.18,111.91c5.11,18.66,16.24,36.84,39.67,42.82V111.91Z" style="fill:#e20613"/><path d="M99.85,111.91v42.82a.25.25,0,0,0,.3,0V111.91Z" style="fill:#de3658"/><path d="M99.85,111.91h.3V68.26h-.3Z" style="fill:#de3658"/><path d="M100,150.91l-.33-.1c-17.39-4.86-29.26-17.64-35.32-38l-.12-.46.2-.43c3.49-7.69,4.1-20.73,1.65-34.91a98.59,98.59,0,0,0-2.52-11l-.38-1.3,4.08-.89.45.3C74.77,69,86.84,71.93,100,72s25.28-2.92,32.33-7.79l.46-.3,4.07.89-.38,1.3A97.56,97.56,0,0,0,134,77c-2.44,14.18-1.83,27.22,1.66,34.91l.2.43-.2.46c-6.06,20.37-18,33.15-35.32,38ZM66.87,112.54c5.81,19.07,16.94,31.12,33.13,35.75,16.17-4.63,27.32-16.68,33.1-35.75-3.51-8.17-4.15-21.54-1.65-35.93a95.54,95.54,0,0,1,2.21-9.93l-.38-.07c-7.51,4.94-19.89,7.92-33.31,7.94s-25.76-3-33.27-7.94l-.39.07a98.18,98.18,0,0,1,2.22,9.93C71,91,70.39,104.37,66.87,112.54Z" style="fill:#ececec"/><g style="opacity:0.079999998211861"><path d="M111.2,3A22.41,22.41,0,0,0,88.8,3L21.6,41.8A22.47,22.47,0,0,0,10.4,61.2v77.6a22.47,22.47,0,0,0,11.2,19.4l61.6,35.6,36.2-186Z" style="fill:#fff"/></g><path d="M128.6,28.8l2.4,4.9a1.18,1.18,0,0,0,1,.7l5.4.8a1.34,1.34,0,0,1,1.11,1.54,1.33,1.33,0,0,1-.41.76l-3.9,3.8a1.37,1.37,0,0,0-.4,1.2l.9,5.4a1.32,1.32,0,0,1-1.08,1.52,1.29,1.29,0,0,1-.82-.12L128,46.8a1.28,1.28,0,0,0-1.2,0L122,49.3a1.3,1.3,0,0,1-1.77-.51,1.37,1.37,0,0,1-.13-.89l.9-5.4a1.37,1.37,0,0,0-.4-1.2l-3.9-3.8a1.34,1.34,0,0,1,.7-2.3l5.4-.8a1.42,1.42,0,0,0,1-.7l2.4-4.9a1.33,1.33,0,0,1,2.4,0Z" style="fill:#fff;opacity:0.3"/><path d="M101.2,16.3l2.4,4.9a1.18,1.18,0,0,0,1,.7l5.4.8a1.34,1.34,0,0,1,1.11,1.54,1.33,1.33,0,0,1-.41.76l-3.9,3.8a1.37,1.37,0,0,0-.4,1.2l.9,5.4a1.32,1.32,0,0,1-1.08,1.52,1.29,1.29,0,0,1-.82-.12l-4.8-2.5a1.28,1.28,0,0,0-1.2,0l-4.8,2.5a1.3,1.3,0,0,1-1.77-.51,1.37,1.37,0,0,1-.13-.89l.9-5.4a1.37,1.37,0,0,0-.4-1.2l-4-3.8a1.34,1.34,0,0,1,.7-2.3l5.4-.8a1.42,1.42,0,0,0,1-.7l2.4-4.9a1.42,1.42,0,0,1,1.92-.58A1.47,1.47,0,0,1,101.2,16.3Z" style="fill:#fff"/><path d="M73.8,28.8l2.4,4.9a1.18,1.18,0,0,0,1,.7l5.4.8a1.34,1.34,0,0,1,1.11,1.54,1.33,1.33,0,0,1-.41.76l-3.9,3.8a1.37,1.37,0,0,0-.4,1.2l.9,5.4a1.32,1.32,0,0,1-1.08,1.52A1.29,1.29,0,0,1,78,49.3l-4.8-2.5a1.28,1.28,0,0,0-1.2,0l-4.8,2.5a1.3,1.3,0,0,1-1.77-.51,1.37,1.37,0,0,1-.13-.89l.9-5.4a1.37,1.37,0,0,0-.4-1.2l-3.9-3.8a1.34,1.34,0,0,1,.7-2.3l5.4-.8a1.42,1.42,0,0,0,1-.7l2.4-4.9a1.33,1.33,0,0,1,2.4,0Z" style="fill:#fff;isolation:isolate"/></svg>