<svg xmlns="http://www.w3.org/2000/svg" xmlns:xlink="http://www.w3.org/1999/xlink" width="200" height="200" viewBox="0 0 200 200"><defs><linearGradient id="green" x1="57.2" y1="178.02" x2="142.39" y2="26.72" gradientTransform="matrix(1, 0, 0, -1, 0, 202)" gradientUnits="userSpaceOnUse"><stop offset="0" stop-color="#8bc34a"/><stop offset="1" stop-color="#558b2f"/></linearGradient></defs><path d="M100,197.2a20,20,0,0,1-9.8-2.6L23,155.8a19.78,19.78,0,0,1-9.8-17V61.2a19.78,19.78,0,0,1,9.8-17L90.2,5.4a19.77,19.77,0,0,1,19.6,0L177,44.2a19.78,19.78,0,0,1,9.8,17v77.6a19.78,19.78,0,0,1-9.8,17l-67.2,38.8A20,20,0,0,1,100,197.2Z" style="fill:url(#green)"/><path d="M100,5.6a16.85,16.85,0,0,1,8.4,2.3l67.2,38.8A16.84,16.84,0,0,1,184,61.2v77.6a16.6,16.6,0,0,1-8.4,14.5l-67.2,38.8a16.49,16.49,0,0,1-16.8,0L24.4,153.3A16.84,16.84,0,0,1,16,138.8V61.2a16.6,16.6,0,0,1,8.4-14.5L91.6,7.9A16.85,16.85,0,0,1,100,5.6M100,0A22.4,22.4,0,0,0,88.8,3L21.6,41.8A22.47,22.47,0,0,0,10.4,61.2v77.6a22.47,22.47,0,0,0,11.2,19.4L88.8,197a22.41,22.41,0,0,0,22.4,0l67.2-38.8a22.47,22.47,0,0,0,11.2-19.4V61.2a22.47,22.47,0,0,0-11.2-19.4L111.2,3A22.4,22.4,0,0,0,100,0Z" style="fill:#a9d17b"/><path d="M58.3,88c-.26-5.85,1.78-10.17,6.86-13.47,8.89-5.6,17.79-11.44,26.94-17a14.55,14.55,0,0,1,16.26,0l22.11,13a16,16,0,0,1,8.39,13c1,9.91,2,20.08,2.8,30,.5,6.1-1.78,11.18-7.12,14.23-9.4,5.34-19.06,10.68-28.72,15.76-4.07,2.29-8.39,2-12.71,0-8.64-4.07-17-8.39-25.66-13a12.57,12.57,0,0,1-7.37-11.19C59.31,108.81,58.8,98.4,58.3,88Zm67.6,3c0-1.77-1.53-3-3.56-3-1,0-1.78.25-2.79.25-10.93,1-22.12,2.29-33,3.3-4.32.51-5.59,3-3.05,6.61l19.06,29.74c.76,1,1.27,2.28,2.79,2,1.53,0,1.78-1.27,2.29-2.29,5.59-11.18,11.44-22.11,17-33.29A7.47,7.47,0,0,0,125.9,91ZM100.74,59.51c-2,0-3.31,1.27-4.32,2.8-4.32,7.37-8.9,14.74-13.22,21.85A3.47,3.47,0,0,0,83,88c1,1.27,2.29,1.27,3.56,1.27,6.35-.51,12.45-1.27,18.8-1.78,5.85-.51,11.69-1,17.79-1.78a2.58,2.58,0,0,0,2.54-1.27c.51-1.27-.25-1.78-1-2.54L104.8,61.29A6.52,6.52,0,0,0,100.74,59.51ZM78.37,97.38a3.54,3.54,0,0,0-3.05,1.78c-3,7.11-6.35,14-9.4,21.09-1.27,2.8.25,5.08,3,5.85l30.5,6.1a1.6,1.6,0,0,0,2-.51c.51-.76.25-1.27-.25-2-.77-1-1.27-2.28-2-3.3-5.84-8.89-11.94-18-17.79-26.94C80.66,98.14,79.9,97.12,78.37,97.38Zm59.22,19.06a26.36,26.36,0,0,1-.76-3c-1.78-6.35-3.82-12.71-5.59-19.32-.26-1-.77-2-2-2-1.27-.25-1.78.76-2,1.53-6.1,11.94-12.2,23.89-18,35.83-.26.51-.77,1.27-.26,1.78s1.27.25,2,0c7.37-2.54,14.49-5.08,21.86-7.62C135.56,122.79,137.59,120,137.59,116.44Zm-63-29.23a7.37,7.37,0,0,0,6.61-3.81c4.57-7.12,8.89-14.23,13.47-21.35.25-.51,1-1.27.51-1.78-.77-.76-1.53,0-2,.26L82.44,67.39C77.36,70.69,72,74,66.94,77.3c-2.8,1.78-2.54,4.83.25,6.35,1.53.77,2.8,1.78,4.32,2.55A7.23,7.23,0,0,0,74.56,87.21ZM61.35,88.74c.25,4.57.5,9.66.76,14.74.25,4.83.51,9.66,1,14.74,0,.51-.26,1.52.76,1.52.76,0,.76-.76,1-1.52,2.8-6.86,5.85-13.73,8.65-20.59a9.22,9.22,0,0,0-2.8-9.91c-1.27-1-2.54-1.78-4.07-2.79-1-.77-2.28-1.53-3.81-.77C61.35,85.43,61.09,86.7,61.35,88.74Zm45.74-28c-.51,1,0,1.27.51,1.78a16.05,16.05,0,0,0,2.29,2c5.59,5.6,11.18,11.19,16.77,17,2,2,4.07,1.53,5.34-1a5.18,5.18,0,0,0-2.29-6.6A250.65,250.65,0,0,0,107.09,60.78ZM71,128.64c.51.51.77.51,1,.76,7.62,3.81,15,7.62,22.62,11.44a5.6,5.6,0,0,0,7.11-1.78A3,3,0,0,0,100,134c-7.63-1.53-15-3-22.62-4.58C75.32,129.15,73.29,128.13,71,128.64Zm67.35-15.5h0c-.25-6.1-.76-12.2-1.27-18-.25-3.56-.76-7.37-1-10.93a2.21,2.21,0,0,0-1.52-2.28c-1.27-.26-1.53,1-1.78,1.77a12.64,12.64,0,0,0-.25,8.14c1.27,3.81,2,8.13,3.3,11.94C136.83,106.78,137.34,110.09,138.35,113.14Zm-8.89,13.21c-3.31,1.27-5.85,2.29-8.64,3.3-3.82,1.28-7.63,2.8-11.69,4.07-2.29.76-4.07,2.8-5.6,5.08-.25.51-.25.77.26,1.27.25.51.76.26,1.27.26.25-.26.76-.26,1-.51,6.6-3.56,13.21-7.12,19.82-10.93A9.26,9.26,0,0,0,129.46,126.35ZM77.87,93.06c1-.51,2.54-.26,2.54-2.29A1.79,1.79,0,0,0,78.12,89a2.13,2.13,0,0,0-2.29,2.29C75.83,92.55,76.34,93.31,77.87,93.06Zm49.55-6.36c.26.77.26,1.78,1.27,1.78S130,87.72,130,87s-.25-1.78-1.52-1.78C127.68,85.18,127.68,85.94,127.42,86.7Zm-21.6,46.77c0-.77-.51-1-1.27-1s-1.52,0-1.52,1a1.2,1.2,0,0,0,1.27,1.27A2,2,0,0,0,105.82,133.47Z" style="fill:#2d67b0"/><path d="M125.9,91a7.47,7.47,0,0,1-1.27,3.31c-5.59,11.18-11.18,22.36-17,33.29-.51,1-.76,2.29-2.29,2.29s-2-1-2.79-2L83.46,98.14c-2.29-3.56-1-6.35,3.05-6.61,10.92-1.27,22.11-2.28,33-3.3,1,0,1.77-.25,2.79-.25A3,3,0,0,1,125.9,91Zm-20.59,12.71c.26-2-.51-2-1.78-1.78-2.79.51-2.79.51-3-2.54V98.9c-.25-.76,0-1.78-1.27-1.78-1.27.26-1,1-.76,2a2.33,2.33,0,0,1-.25,2.54c-1.27,1.27-1.27,2.29.25,3.3a2.31,2.31,0,0,1,.76,1.78,16.43,16.43,0,0,1,.26,3.56,1.52,1.52,0,0,0,.76,1.52,1.55,1.55,0,0,0,1.78-.76A17.46,17.46,0,0,0,105.31,103.73Zm5.59-4.06V97.12c0-.5,0-1-.5-1a1.39,1.39,0,0,0-1.27.76,1.5,1.5,0,0,0-.26,1c-.51,3.81-.25,7.62-.25,11.69,0,.51.25,1,.76,1a4.39,4.39,0,0,0,3.05-1.52c.25-.51.76-.76.25-1.53-.25-.25-.51-.5-.76-.25-1.52.51-1.52-.51-1.52-1.52A54.38,54.38,0,0,1,110.9,99.67Z" style="fill:#498fcc"/><path d="M100.74,59.51a5.4,5.4,0,0,1,3.81,1.78q9.92,10.29,19.82,20.59c.77.76,1.53,1.52,1,2.54a2.59,2.59,0,0,1-2.54,1.27c-5.85.51-11.69,1-17.79,1.78-6.35.51-12.45,1.27-18.81,1.78-1.27.25-2.79.25-3.56-1.27A3.5,3.5,0,0,1,83,84.16c4.32-7.37,8.89-14.48,13.21-21.85C97.43,60.78,98.71,59.51,100.74,59.51ZM111.16,77.3a13.7,13.7,0,0,0-1.27-4.83c-.76-1.27-1.78-2.28-3.31-2A3.58,3.58,0,0,0,103.79,73a8.46,8.46,0,0,0,.25,6.1c1,2.8,2.54,4.07,4.32,3.56C110.14,82.38,111.16,80.6,111.16,77.3ZM97.69,83.65a9.64,9.64,0,0,0,2.29-.5c1-.26,3,.5,2.79-1.53s-1.78-1.27-3-1.27c-.25,0-1,0-1-.25-.26-.51,0-.77.25-1.27.51-.77,1.27-1.27,1.78-2,1-1.52,1-3.81,0-4.83a3.52,3.52,0,0,0-4.07-.76c-.76.26-1.52.76-1.27,1.78s1,.51,1.53.25a1.6,1.6,0,0,1,2,.51c.76.51.51,1.53.25,2-.5.76-1,1.78-1.52,2.54-.76,1-1.78,1.78-2.29,3.05C95.4,82.89,95.91,83.65,97.69,83.65Z" style="fill:#498fcc"/><path d="M78.37,97.38c1.53-.26,2.29.76,3,2,5.85,9.15,12,18,17.79,26.94a14.29,14.29,0,0,1,2,3.3,1.55,1.55,0,0,1,.25,2c-.51.76-1.27.51-2,.51L69,126.1c-3-.51-4.32-3-3-5.85,3-7.11,6.35-14,9.4-21.09A3.24,3.24,0,0,1,78.37,97.38Zm0,24.14c-1.52,0-2-1-2.79-1.52-.26-.26-.76-.77-1.27-.26-.26.26,0,.77.25,1s.51.76,1,1a11,11,0,0,0,10.16,0c2.55-1.27,2.29-3.82,0-5.09a7.76,7.76,0,0,0-5.33-.76C77.36,116.69,76.59,118.47,78.37,121.52Zm3.31-10.16c-1.53,0-2.29.5-2.29,1.52,0,.76.51,1,1.27,1A2,2,0,0,0,83,112.12C83,111.36,81.93,111.36,81.68,111.36Z" style="fill:#498fcc"/><path d="M137.59,116.44a7.62,7.62,0,0,1-4.83,7.37c-7.37,2.54-14.49,5.08-21.86,7.62-.76.26-1.52.51-2,0s0-1.27.26-1.78c6.09-11.94,12.19-23.88,18-35.83.51-.76,1-1.78,2-1.52a2.43,2.43,0,0,1,2,2c1.77,6.35,3.81,12.71,5.59,19.31C137.08,114.66,137.34,115.68,137.59,116.44Zm-6.61-.25a12.3,12.3,0,0,0-.76-4.58c-.51-1.27-1.27-1.52-2.29-.25a7.39,7.39,0,0,0-1,2c-.77,1.52-1.53,2.29-3,1-.77-.77-1.28-.26-1.53.76-.25.76,2.29,4.06,3.3,4.06a.25.25,0,0,0,.26-.25c1-1,1.78-.51,2.79,0,1.27.76,2,0,2.29-1.27Z" style="fill:#498fcc"/><path d="M74.56,87.21a8.74,8.74,0,0,1-3.3-.76c-1.53-.76-2.8-1.78-4.32-2.54-2.8-1.53-3-4.58-.26-6.35C71.77,74.25,77.1,71,82.19,67.64l10.67-6.86c.51-.25,1.27-1.27,2-.25.51.76-.25,1.27-.51,1.78-4.57,7.11-8.89,14.23-13.46,21.34A8.1,8.1,0,0,1,74.56,87.21Zm7.88-15a3.23,3.23,0,0,0-1.52.25c-2.29.76-4.07,2.54-6.61,2.8-.76,0-1.53,1-2,1.78-.25.51-.76,1-.25,1.52.25.51,1,.26,1.53.26.76,0,1.52-.51,2.28-.26,3.31.76,5.85-.76,8.13-3.3.51-.76,1-1.53.51-2.29A2.88,2.88,0,0,0,82.44,72.22Z" style="fill:#498fcc"/><path d="M61.35,88.74c-.26-2,0-3.31,1.27-4.07s2.54,0,3.81.76c1.27,1,2.54,1.78,4.07,2.8a8.32,8.32,0,0,1,2.79,9.91c-2.79,6.86-5.59,13.72-8.64,20.59-.25.5-.25,1.52-1,1.52s-.5-1-.76-1.52c-.25-4.83-.76-9.66-1-14.74C61.85,98.4,61.6,93.31,61.35,88.74Zm6.1,9.4c0-1.78-.26-3.3-.26-4.83,0-.51-.25-1.52-1-1.52s-1,.76-1,1.27c-.76,2.79-1.27,5.84-.26,8.64a1.13,1.13,0,0,1,0,1.27c-.25.51-.76,1.27-.25,1.78.76.25,1-.76,1.27-1.27a.54.54,0,0,1,.51-.51c.51,1-.26,2.29,1,3.3,1-4.06,2.28-7.87,2-12.2C68.46,95.6,68.46,96.87,67.45,98.14Z" style="fill:#498fcc"/><path d="M107.09,60.78c7.63,4.07,15.25,8.64,22.62,13A5.2,5.2,0,0,1,132,80.35c-1.27,2.54-3.31,3.05-5.34,1-5.59-5.59-11.18-11.18-16.77-17-.76-.76-1.53-1.27-2.29-2C107.35,62.05,106.58,61.8,107.09,60.78ZM124.88,75a3.07,3.07,0,0,1-.76-2.54.88.88,0,0,0-.51-.25,4.49,4.49,0,0,1-2.54-1,1.11,1.11,0,0,0-1.27.26c-.25.5.25.76.51,1,1,1,2.54,1.53,3,3,0,.26.51.26.76.26A.68.68,0,0,0,124.88,75Z" style="fill:#498fcc"/><path d="M71,128.64c2.55-.51,4.32.51,6.36.76,7.62,1.53,15,3,22.62,4.58a3,3,0,0,1,1.77,5.08,5.92,5.92,0,0,1-7.11,1.78C87,137,79.64,133.21,72,129.4,71.77,129.15,71.51,129.15,71,128.64Zm22.88,7.88a4.56,4.56,0,0,0-1.78-2c-1-.5-2-1-3-.5-.26,0-.26.25-.51.5,0,.51.25.51.51.51a3.07,3.07,0,0,1,3,2c.25.51.51.51,1,.51C93.62,137.79,93.88,137.28,93.88,136.52Z" style="fill:#498fcc"/><path d="M138.35,113.14c-.76-3-1.52-6.36-2.54-9.41-1.27-3.81-2-8.13-3.3-11.94a11.22,11.22,0,0,1,.25-8.14c.25-1,.76-2,1.78-1.77s1.27,1.27,1.52,2.28c.51,3.56.77,7.37,1,10.93.51,6.1.76,12,1.27,18Zm-3-19.57V89.25a.76.76,0,1,0-1.52,0C133.78,90.52,133.52,92.3,135.3,93.57Z" style="fill:#498fcc"/><path d="M129.46,126.35a8.3,8.3,0,0,1-3.82,2.54c-6.6,3.56-13.21,7.12-19.82,10.93-.25.25-.76.25-1,.51-.5.25-.76.25-1.27-.26a2.3,2.3,0,0,1-.25-1.27,10.83,10.83,0,0,1,5.59-5.08c3.81-1.27,7.63-2.79,11.69-4.07C123.36,128.64,126.15,127.62,129.46,126.35ZM112.68,134a2.8,2.8,0,0,0-2.54.76c-.25.25-.51.76-.25,1,.25.51.76.26,1,0A2.48,2.48,0,0,0,112.68,134Z" style="fill:#498fcc"/><path d="M77.87,93.06c-1.53,0-2-.51-1.78-1.78A2.13,2.13,0,0,1,78.37,89c1.27,0,2.29.51,2.29,1.78C80.41,92.8,78.88,92.8,77.87,93.06Z" style="fill:#498fcc"/><path d="M127.42,86.7c.26-.76,0-1.52,1-1.52S130,85.94,130,87c0,.76-.25,1.52-1.27,1.52S127.68,87.47,127.42,86.7Z" style="fill:#498fcc"/><path d="M105.82,133.47a1.61,1.61,0,0,1-1.52,1.27c-.77,0-1.27-.26-1.27-1.27s.76-1,1.52-1S105.82,132.7,105.82,133.47Z" style="fill:#498fcc"/><path d="M105.31,103.73a18.93,18.93,0,0,1-3.3,7.37c-.51.51-1,1-1.78.76s-.76-1-.76-1.52c0-1.27-.26-2.29-.26-3.56a2.74,2.74,0,0,0-.76-1.78c-1.27-1-1.27-2-.25-3.3.76-.76.25-1.78.25-2.54-.25-.76-.51-1.78.76-2s1.27.77,1.27,1.78v.51c.26,3,.26,3,3,2.54C104.8,101.7,105.57,101.7,105.31,103.73ZM100.74,106c.25.76,0,2.29.76,2.54,1,.25,1.27-1.27,1.53-2.29.25-.5.5-1.27,0-1.78s-1-.25-1.53,0C100.74,104.49,100.74,105.26,100.74,106Z" style="fill:#fff"/><path d="M110.9,99.67c-.25,2-.25,4.06-.5,6.1,0,1,0,2,1.52,1.52.25,0,.76,0,.76.25.26.51,0,1-.25,1.53a4,4,0,0,1-3.05,1.52c-.76,0-.76-.5-.76-1,0-3.81,0-7.63.25-11.69,0-.26.26-.77.26-1,.25-.51.5-1,1.27-.76.5,0,.5.76.5,1Z" style="fill:#fff"/><path d="M111.16,77.3c0,3.3-1,5.08-2.8,5.59-1.78.26-3.3-1-4.32-3.56a8.46,8.46,0,0,1-.25-6.1c.51-1.27,1-2.54,2.79-2.54,1.78-.25,2.55.77,3.31,2A8.39,8.39,0,0,1,111.16,77.3ZM105.31,75a10.21,10.21,0,0,0,.77,3.82c.5,1,1,1.77,2.28,1.52,1-.25,1.27-1.27,1.27-2.29a10.15,10.15,0,0,0-.76-3.81c-.51-1-1-2-2.29-1.78C105.06,72.73,105.31,74,105.31,75Z" style="fill:#fff"/><path d="M97.69,83.65c-2,0-2.54-.76-1.78-2.28.51-1.27,1.78-2,2.29-3.05a22.71,22.71,0,0,0,1.52-2.54,1.91,1.91,0,0,0-.25-2,2,2,0,0,0-2-.51c-.5.26-1.27.77-1.52-.25-.25-.76.51-1.52,1.27-1.78a3.89,3.89,0,0,1,4.07.76c1,1,1,3.31,0,4.83-.51.77-1.27,1.27-1.78,2-.26.25-.76.76-.26,1.27a1.57,1.57,0,0,0,1,.25c1.27,0,2.8-1,3,1.27.25,2-1.78,1.27-2.8,1.53C99.21,83.4,98.45,83.4,97.69,83.65Z" style="fill:#fff"/><path d="M78.37,121.52c-2-3-1-4.83,2-5.33a7.86,7.86,0,0,1,5.33.76c2.29,1.52,2.29,3.81,0,5.08a11,11,0,0,1-10.16,0,2,2,0,0,1-1-1c-.25-.25-.51-.76-.25-1,.51-.51.76,0,1.27.25C76.34,120.51,77.1,121.52,78.37,121.52Zm3.31-.51c1.27,0,2.28-.5,2.28-1.78a1.79,1.79,0,0,0-2-1.77c-1.27,0-2.29.5-2.29,2C79.39,120.76,80.66,121,81.68,121Z" style="fill:#fff"/><path d="M81.68,111.36c.25,0,1.27,0,1.27,1a2.23,2.23,0,0,1-2.29,1.78c-.76,0-1.52-.25-1.27-1C79.39,112.12,80.15,111.36,81.68,111.36Z" style="fill:#fff"/><path d="M131,116.19v1.52c-.25,1.27-1,2-2.29,1.27-1-.51-1.77-1-2.79,0l-.26.25c-.76,0-3.55-3-3.3-4.06s.76-1.53,1.53-.76c1.52,1.27,2.28.5,3-1,.25-.76.76-1.27,1-2,.76-1.27,1.53-1.27,2.29.25A12.3,12.3,0,0,1,131,116.19Zm-1.27-.51c-.25-.51,0-1.78-.76-1.78s-1.27,1-1.27,1.78A1.2,1.2,0,0,0,129,117C129.71,117,129.71,116.44,129.71,115.68Z" style="fill:#fff"/><path d="M82.44,72.22c.76,0,1.78,0,2,.76.51.76,0,1.53-.51,2.29-2.28,2.29-4.82,3.81-8.13,3.3-.76-.25-1.52.26-2.28.26-.51,0-1,.25-1.53-.26s0-1,.25-1.52a3.5,3.5,0,0,1,2-1.78c2.54-.26,4.32-2,6.61-2.8A3.23,3.23,0,0,1,82.44,72.22Zm-1,2.54a.67.67,0,0,0-.76-.76c-.76,0-3.56,1.52-3.81,2.28,0,.26-.26.77.25,1C78.12,77.56,81.42,75.78,81.42,74.76Zm-8.64,3A2.81,2.81,0,0,0,75.07,76,2.36,2.36,0,0,0,72.78,77.81Z" style="fill:#fff"/><path d="M67.45,98.14c1-1.27.76-2.54,2-3.56.25,4.32-1,8.14-2,12.2-1.28-1.27-.51-2.54-1-3.3-.51,0-.51.25-.51.51-.25.5-.51,1.52-1.27,1.27s0-1,.25-1.78a1.13,1.13,0,0,0,0-1.27c-1-3-.5-5.85.26-8.64.25-.51.25-1.53,1-1.27.77,0,.77,1,1,1.52A20.18,20.18,0,0,1,67.45,98.14ZM65.67,95.6c-.26,1.78-.51,2.8.25,4.32C66.17,98.4,66.43,97.12,65.67,95.6Z" style="fill:#fff"/><path d="M124.88,75c0,.51-.25.77-.76,1-.25.25-.76.25-.76-.25-.51-1.53-2-2.29-3-3.31-.26-.25-.76-.51-.51-1a.89.89,0,0,1,1.27-.26,4.49,4.49,0,0,0,2.54,1,.88.88,0,0,1,.51.25A3.07,3.07,0,0,0,124.88,75Z" style="fill:#fff"/><path d="M93.88,136.52c0,.76-.26,1.27-.77,1.27s-.76,0-1-.51a3.07,3.07,0,0,0-3-2c-.26,0-.76-.26-.51-.51a.54.54,0,0,1,.51-.51,2.78,2.78,0,0,1,3,.51A4,4,0,0,1,93.88,136.52Z" style="fill:#fff"/><path d="M135.3,93.57c-1.52-1.27-1.27-2.8-1.27-4.32a.77.77,0,1,1,1.53,0A22.7,22.7,0,0,0,135.3,93.57Z" style="fill:#fff"/><path d="M112.68,134a3,3,0,0,1-1.78,1.77c-.25.26-.76.51-1,0-.26-.25,0-.76.25-1C110.9,134.48,111.67,133.72,112.68,134Z" style="fill:#fff"/><path d="M100.74,106c0-.76,0-1.53.76-1.78.51-.25,1-.51,1.53,0s.25,1.27,0,1.78c-.26,1-.51,2.54-1.53,2.29C100.74,108.31,101,106.78,100.74,106Z" style="fill:#498fcc"/><path d="M105.31,75c0-1-.25-2.28,1-2.54s1.78.76,2.29,1.78a10.15,10.15,0,0,1,.76,3.81c0,.77,0,2-1.27,2.29-1,.25-1.78-.51-2.29-1.52A20,20,0,0,1,105.31,75Z" style="fill:#498fcc"/><path d="M81.68,121c-1,0-2.29-.25-2.29-1.78s1-2,2.29-2,2,.51,2,1.78C84,120.76,82.69,121,81.68,121Z" style="fill:#498fcc"/><path d="M129.71,115.68c0,.76,0,1.27-.76,1-.76,0-1.53-.25-1.27-1.27,0-.76.51-1.78,1.27-1.78C129.71,113.9,129.46,115.17,129.71,115.68Z" style="fill:#498fcc"/><path d="M81.42,74.76c0,1-3,3-4.06,2.54-.51-.25-.51-.51-.26-1,.26-.76,2.8-2.54,3.82-2.28C81.17,74,81.42,74.25,81.42,74.76Z" style="fill:#498fcc"/><path d="M72.78,77.81A3.22,3.22,0,0,1,75.07,76,2.81,2.81,0,0,1,72.78,77.81Z" style="fill:#498fcc"/><path d="M65.67,95.6c.76,1.52.5,2.8.25,4.32C65.16,98.4,65.41,97.38,65.67,95.6Z" style="fill:#498fcc"/><g style="opacity:0.079999998211861"><path d="M111.2,3A22.41,22.41,0,0,0,88.8,3L21.6,41.8A22.47,22.47,0,0,0,10.4,61.2v77.6a22.47,22.47,0,0,0,11.2,19.4l61.6,35.6,36.2-186Z" style="fill:#fff"/></g><path d="M128.6,28.8l2.4,4.9a1.18,1.18,0,0,0,1,.7l5.4.8a1.34,1.34,0,0,1,1.11,1.54,1.33,1.33,0,0,1-.41.76l-3.9,3.8a1.37,1.37,0,0,0-.4,1.2l.9,5.4a1.32,1.32,0,0,1-1.08,1.52,1.29,1.29,0,0,1-.82-.12L128,46.8a1.28,1.28,0,0,0-1.2,0L122,49.3a1.3,1.3,0,0,1-1.77-.51,1.37,1.37,0,0,1-.13-.89l.9-5.4a1.37,1.37,0,0,0-.4-1.2l-3.9-3.8a1.34,1.34,0,0,1,.7-2.3l5.4-.8a1.42,1.42,0,0,0,1-.7l2.4-4.9a1.33,1.33,0,0,1,2.4,0Z" style="fill:#fff;opacity:0.3"/><path d="M101.2,16.3l2.4,4.9a1.18,1.18,0,0,0,1,.7l5.4.8a1.34,1.34,0,0,1,1.11,1.54,1.33,1.33,0,0,1-.41.76l-3.9,3.8a1.37,1.37,0,0,0-.4,1.2l.9,5.4a1.32,1.32,0,0,1-1.08,1.52,1.29,1.29,0,0,1-.82-.12l-4.8-2.5a1.28,1.28,0,0,0-1.2,0l-4.8,2.5a1.3,1.3,0,0,1-1.77-.51,1.37,1.37,0,0,1-.13-.89l.9-5.4a1.37,1.37,0,0,0-.4-1.2l-4-3.8a1.34,1.34,0,0,1,.7-2.3l5.4-.8a1.42,1.42,0,0,0,1-.7l2.4-4.9a1.42,1.42,0,0,1,1.92-.58A1.47,1.47,0,0,1,101.2,16.3Z" style="fill:#fff;opacity:0.3"/><path d="M73.8,28.8l2.4,4.9a1.18,1.18,0,0,0,1,.7l5.4.8a1.34,1.34,0,0,1,1.11,1.54,1.33,1.33,0,0,1-.41.76l-3.9,3.8a1.37,1.37,0,0,0-.4,1.2l.9,5.4a1.32,1.32,0,0,1-1.08,1.52A1.29,1.29,0,0,1,78,49.3l-4.8-2.5a1.28,1.28,0,0,0-1.2,0l-4.8,2.5a1.3,1.3,0,0,1-1.77-.51,1.37,1.37,0,0,1-.13-.89l.9-5.4a1.37,1.37,0,0,0-.4-1.2l-3.9-3.8a1.34,1.34,0,0,1,.7-2.3l5.4-.8a1.42,1.42,0,0,0,1-.7l2.4-4.9a1.33,1.33,0,0,1,2.4,0Z" style="fill:#fff;isolation:isolate"/></svg>